<svg fill="none" height="24" viewBox="0 0 24 24" width="24" xmlns="http://www.w3.org/2000/svg" xmlns:xlink="http://www.w3.org/1999/xlink"><clipPath id="a"><path d="m0 0h24v24h-24z"/></clipPath><g clip-path="url(#a)"><path clip-rule="evenodd" d="m23.9731 18.5016c0-.5477-.1421-1.0582-.3869-1.4869l-7.8758-15.50293c-.2065-.4408-.5146-.809434-.8914-1.066378-.3768-.256945-.808-.392512-1.2475-.3921687h-4.1635l12.1651 23.8690767 1.9171-3.7614c.3783-.72.4829-1.0386.4829-1.6593zm-23.9731-.0284 2.0256 3.9644c.2025.4538.51175.835.8934 1.1011.38164.2662.82074.4069 1.26852.4065h13.44188l-2.7888-5.472zm7.41888-14.5527 5.43742 10.6647h-10.87486z" fill="#6b7280" fill-rule="evenodd"/></g></svg>